<svg xmlns="http://www.w3.org/2000/svg" width="72" height="72" viewBox="0 0 72 72" fill="none">
  <g filter="url(#filter0_d_403_2322)">
    <rect x="16" y="12" width="40" height="40" rx="10" fill="#FDFDFD"/>
    <rect x="16.25" y="12.25" width="39.5" height="39.5" rx="9.75" stroke="#E3E3E7" stroke-width="0.5"/>
    <path d="M40.5835 23.2275H31.4168C28.6668 23.2275 26.8335 25.0608 26.8335 27.8108V33.3108C26.8335 36.0608 28.6668 37.8942 31.4168 37.8942V39.8467C31.4168 40.58 32.2327 41.02 32.8377 40.6075L36.9168 37.8942H40.5835C43.3335 37.8942 45.1668 36.0608 45.1668 33.3108V27.8108C45.1668 25.0608 43.3335 23.2275 40.5835 23.2275ZM36.0002 34.3833C35.6152 34.3833 35.3127 34.0717 35.3127 33.6958C35.3127 33.32 35.6152 33.0083 36.0002 33.0083C36.3852 33.0083 36.6877 33.32 36.6877 33.6958C36.6877 34.0717 36.3852 34.3833 36.0002 34.3833ZM37.1552 30.5792C36.7977 30.8175 36.6877 30.9733 36.6877 31.23V31.4225C36.6877 31.7983 36.376 32.11 36.0002 32.11C35.6243 32.11 35.3127 31.7983 35.3127 31.4225V31.23C35.3127 30.1667 36.0918 29.6442 36.3852 29.4425C36.7243 29.2133 36.8343 29.0575 36.8343 28.8192C36.8343 28.3608 36.4585 27.985 36.0002 27.985C35.5418 27.985 35.166 28.3608 35.166 28.8192C35.166 29.195 34.8543 29.5067 34.4785 29.5067C34.1027 29.5067 33.791 29.195 33.791 28.8192C33.791 27.6 34.781 26.61 36.0002 26.61C37.2193 26.61 38.2093 27.6 38.2093 28.8192C38.2093 29.8642 37.4393 30.3867 37.1552 30.5792Z" fill="#1A1E25"/>
  </g>
  <defs>
    <filter id="filter0_d_403_2322" x="0" y="0" width="72" height="72" filterUnits="userSpaceOnUse" color-interpolation-filters="sRGB">
      <feFlood flood-opacity="0" result="BackgroundImageFix"/>
      <feColorMatrix in="SourceAlpha" type="matrix" values="0 0 0 0 0 0 0 0 0 0 0 0 0 0 0 0 0 0 127 0" result="hardAlpha"/>
      <feOffset dy="4"/>
      <feGaussianBlur stdDeviation="8"/>
      <feComposite in2="hardAlpha" operator="out"/>
      <feColorMatrix type="matrix" values="0 0 0 0 0.270833 0 0 0 0 0.270833 0 0 0 0 0.270833 0 0 0 0.15 0"/>
      <feBlend mode="normal" in2="BackgroundImageFix" result="effect1_dropShadow_403_2322"/>
      <feBlend mode="normal" in="SourceGraphic" in2="effect1_dropShadow_403_2322" result="shape"/>
    </filter>
  </defs>
</svg>